<?xml version="1.0" encoding="UTF-8"?>
<svg width="405px" height="405px" viewBox="0 0 405 405" version="1.1" xmlns="http://www.w3.org/2000/svg" xmlns:xlink="http://www.w3.org/1999/xlink">
    <!-- Generator: Sketch 41.1 (35376) - http://www.bohemiancoding.com/sketch -->
    <title>7</title>
    <desc>Created with Sketch.</desc>
    <defs></defs>
    <g id="a" stroke="none" stroke-width="1" fill="none" fill-rule="evenodd">
        <g id="resource-1-copy" transform="translate(-344.000000, -1766.000000)" fill="#FFFFFF">
            <path d="M681.29128,1987.9342 L681.29128,2100.71417 C681.29128,2102.78661 679.61608,2104.46667 677.532238,2104.46667 L565.113173,2104.46667 L565.113173,2114.66667 C565.068751,2115.90713 565.113173,2117.15948 565.113173,2118.42222 C565.113173,2147.46013 541.622658,2171 512.64564,2171 C483.668622,2171 460.178108,2147.46013 460.178108,2118.42222 C460.178108,2117.15948 460.222529,2115.90713 460.309891,2114.66667 L460.188233,2104.46667 L347.759042,2104.46667 C345.68298,2104.46667 344,2102.78795 344,2100.71417 L344,1770.21917 C344,1768.14672 345.6752,1766.46667 347.759042,1766.46667 L677.532238,1766.46667 C679.6083,1766.46667 681.29128,1768.14539 681.29128,1770.21917 L681.29128,1883.08917 L691.760375,1883.13092 C693.000841,1883.04356 694.253187,1882.99913 695.515931,1882.99913 C724.553836,1882.99913 748.093709,1906.48965 748.093709,1935.46667 C748.093709,1964.44368 724.553836,1987.9342 695.515931,1987.9342 C694.253187,1987.9342 693.000841,1987.88978 691.760375,1987.9342 L681.29128,1987.9342 Z" id="7" transform="translate(546.046854, 1968.733333) scale(1, -1) translate(-546.046854, -1968.733333) "></path>
        </g>
    </g>
</svg>