<?xml version="1.0" encoding="UTF-8"?>
<svg width="338px" height="406px" viewBox="0 0 338 406" version="1.1" xmlns="http://www.w3.org/2000/svg" xmlns:xlink="http://www.w3.org/1999/xlink">
    <!-- Generator: Sketch 41.1 (35376) - http://www.bohemiancoding.com/sketch -->
    <title>8</title>
    <desc>Created with Sketch.</desc>
    <defs></defs>
    <g id="a" stroke="none" stroke-width="1" fill="none" fill-rule="evenodd">
        <g id="resource-1-copy" transform="translate(-791.000000, -1766.000000)" fill="#FFFFFF">
            <path d="M873.669076,1800.40121 L761.374911,1800.40121 C759.301129,1800.40121 757.62241,1802.08419 757.62241,1804.16026 L757.62241,2133.93345 C757.62241,2136.01729 759.302462,2137.69249 761.374911,2137.69249 L874.134673,2137.69249 L874.176693,2127.19899 C874.089147,2125.96112 874.044632,2124.7114 874.044632,2123.45131 C874.044632,2094.47429 897.584505,2070.98377 926.62241,2070.98377 C955.660315,2070.98377 979.200188,2094.47429 979.200188,2123.45131 C979.200188,2124.7114 979.155673,2125.96112 979.200188,2127.19899 L979.200188,2137.69249 L1091.86991,2137.69249 C1093.94369,2137.69249 1095.62241,2136.00951 1095.62241,2133.93345 L1095.62241,2021.62463 L1106.16238,2021.62463 C1107.40024,2021.58012 1108.64996,2021.62463 1109.91006,2021.62463 C1138.88708,2021.62463 1162.37759,1998.08476 1162.37759,1969.04685 C1162.37759,1940.00895 1138.88708,1916.46908 1109.91006,1916.46908 C1108.64996,1916.46908 1107.40024,1916.51359 1106.16238,1916.60114 L1095.62241,1916.55893 L1095.62241,1804.16026 C1095.62241,1802.07641 1093.94236,1800.40121 1091.86991,1800.40121 L978.73309,1800.40121 L978.692571,1810.51995 C978.780117,1811.75782 978.824632,1813.00754 978.824632,1814.26763 C978.824632,1843.24465 955.284759,1866.73517 926.246854,1866.73517 C897.208949,1866.73517 873.669076,1843.24465 873.669076,1814.26763 C873.669076,1813.00754 873.713591,1811.75782 873.669076,1810.51995 L873.669076,1800.40121 Z" id="8" transform="translate(960.000000, 1969.046854) scale(-1, -1) rotate(90.000000) translate(-960.000000, -1969.046854) "></path>
        </g>
    </g>
</svg>