<?xml version="1.0" encoding="UTF-8"?>
<svg width="338px" height="405px" viewBox="0 0 338 405" version="1.1" xmlns="http://www.w3.org/2000/svg" xmlns:xlink="http://www.w3.org/1999/xlink">
    <!-- Generator: Sketch 40.3 (33839) - http://www.bohemiancoding.com/sketch -->
    <title>Combined Shape</title>
    <desc>Created with Sketch.</desc>
    <defs></defs>
    <g id="a" stroke="none" stroke-width="1" fill="none" fill-rule="evenodd">
        <g id="resource-1" transform="translate(-344.000000, -1316.000000)" fill="#FFCB8C">
            <g id="faculty" transform="translate(344.000000, 1316.000000)">
                <path d="M337.29128,183 L337.29128,70.7525013 C337.29128,68.6787196 335.6083,67 333.532238,67 L220.935065,67 C220.935065,66.8460139 220.935065,54.6319284 220.935065,53.3866667 C220.935065,24.3487618 197.444551,0.808888889 168.467532,0.808888889 C139.490514,0.808888889 116,24.3487618 116,53.3866667 C116,54.6319284 116,66.8460139 116,67.183963 L3.75904202,67 C1.67519969,67 -2.84217094e-13,68.6800521 -2.84217094e-13,70.7525013 L-2.84217094e-13,401.247499 C-2.84217094e-13,403.32128 1.68298044,405 3.75904202,405 L116.26796,405 L116.309891,394.484444 C116.222529,393.243979 116.178108,391.991632 116.178108,390.728889 C116.178108,361.690984 139.668622,338.151111 168.64564,338.151111 C197.622658,338.151111 221.113173,361.690984 221.113173,390.728889 C221.113173,391.991632 221.068751,393.243979 221.113173,394.484444 L221.113173,405 L333.532238,405 C335.61608,405 337.29128,403.319948 337.29128,401.247499 L337.29128,287.935065 C337.217465,287.935065 324.832202,287.935065 323.577778,287.935065 C294.539873,287.935065 271,264.444551 271,235.467532 C271,206.490514 294.539873,183 323.577778,183 C324.832202,183 337.217465,183 337.380596,183 Z" id="Combined-Shape"></path>
            </g>
        </g>
    </g>
</svg>