<?xml version="1.0" encoding="UTF-8"?>
<svg width="471px" height="338px" viewBox="0 0 471 338" version="1.1" xmlns="http://www.w3.org/2000/svg" xmlns:xlink="http://www.w3.org/1999/xlink">
    <!-- Generator: Sketch 40.3 (33839) - http://www.bohemiancoding.com/sketch -->
    <title>Combined Shape</title>
    <desc>Created with Sketch.</desc>
    <defs></defs>
    <g id="a" stroke="none" stroke-width="1" fill="none" fill-rule="evenodd">
        <g id="resource-1" transform="translate(-725.000000, -1383.000000)" fill="#FFFFFF">
            <g id="student" transform="translate(725.000000, 1383.000000)">
                <path d="M66,116 L66,3.75904202 C66,1.68298044 67.6787196,0 69.7525013,0 L182.046667,0 L182.046667,10.1187384 C182.091181,11.3566032 182.046667,12.6063236 182.046667,13.8664193 C182.046667,42.8434373 205.58654,66.3339518 234.624444,66.3339518 C263.662349,66.3339518 287.202222,42.8434373 287.202222,13.8664193 C287.202222,12.6063236 287.157707,11.3566032 287.070162,10.1187384 L287.11068,-4.4408921e-16 L400.247499,0 C402.319948,0 404,1.67519969 404,3.75904202 L404,116.157718 L414.539967,116.199923 C415.777832,116.112377 417.027552,116.067862 418.287648,116.067862 C447.264666,116.067862 470.75518,139.607735 470.75518,168.64564 C470.75518,197.683545 447.264666,221.223418 418.287648,221.223418 C417.027552,221.223418 415.777832,221.178903 414.539967,221.223418 L404,221.223418 L404,333.532238 C404,335.6083 402.32128,337.29128 400.247499,337.29128 L287.577778,337.29128 L287.577778,326.797774 C287.533263,325.559909 287.577778,324.310188 287.577778,323.050093 C287.577778,294.073075 264.037905,270.58256 235,270.58256 C205.962095,270.58256 182.422222,294.073075 182.422222,323.050093 C182.422222,324.310188 182.466737,325.559909 182.554283,326.797774 L182.512264,337.29128 L69.7525013,337.29128 C67.6800521,337.29128 66,335.61608 66,333.532238 L66,220.935065 C65.6963513,220.935065 53.8055579,220.935065 52.5777778,220.935065 C23.5398729,220.935065 -2.69833303e-14,197.444551 -2.52089996e-14,168.467532 C-2.3434669e-14,139.490514 23.5398729,116 52.5777778,116 C53.8055579,116 65.6963513,116 66.3538828,116 Z" id="Combined-Shape"></path>
            </g>
        </g>
    </g>
</svg>