<?xml version="1.0" encoding="UTF-8"?>
<svg width="338px" height="404px" viewBox="0 0 338 404" version="1.1" xmlns="http://www.w3.org/2000/svg" xmlns:xlink="http://www.w3.org/1999/xlink">
    <!-- Generator: Sketch 40.3 (33839) - http://www.bohemiancoding.com/sketch -->
    <title>Combined Shape</title>
    <desc>Created with Sketch.</desc>
    <defs></defs>
    <g id="a" stroke="none" stroke-width="1" fill="none" fill-rule="evenodd">
        <g id="resource-1" transform="translate(-1238.000000, -1382.000000)" fill="#3752B2">
            <g id="faculty" transform="translate(1407.000000, 1584.000000) scale(-1, 1) rotate(-90.000000) translate(-1407.000000, -1584.000000) translate(1205.000000, 1415.000000)">
                <path d="M66,116.628542 L66,3.7525013 C66,1.68005206 67.6751997,0 69.759042,0 L399.532238,0 C401.6083,0 403.29128,1.67871964 403.29128,3.7525013 L403.29128,334.247499 C403.29128,336.319948 401.61608,338 399.532238,338 L287.113173,338 L287.113173,327.484444 C287.068751,326.243979 287.113173,324.991632 287.113173,323.728889 C287.113173,294.690984 263.622658,271.151111 234.64564,271.151111 C205.668622,271.151111 182.178108,294.690984 182.178108,323.728889 C182.178108,324.991632 182.222529,326.243979 182.309891,327.484444 L182.26796,338 L69.759042,338 C67.6829804,338 66,336.32128 66,334.247499 L66,221.467532 L57.0448196,221.467532 C55.8043538,221.423111 54.5520074,221.467532 53.2892641,221.467532 C24.2513592,221.467532 0.711486291,197.977018 0.711486291,169 C0.711486291,140.022982 24.2513592,116.532468 53.2892641,116.532468 C54.5520074,116.532468 55.8043538,116.576889 57.0448196,116.664251 L66,116.628542 Z M403.29128,116.532468 L403.29128,221.467532 L392.242391,221.467532 C391.001925,221.423111 389.749579,221.467532 388.486836,221.467532 C359.448931,221.467532 335.909058,197.977018 335.909058,169 C335.909058,140.022982 359.448931,116.532468 388.486836,116.532468 C389.749579,116.532468 391.001925,116.576889 392.242391,116.664251 L403.29128,116.532468 Z" id="Combined-Shape"></path>
            </g>
        </g>
    </g>
</svg>