<?xml version="1.0" encoding="UTF-8"?>
<svg width="405px" height="338px" viewBox="0 0 405 338" version="1.1" xmlns="http://www.w3.org/2000/svg" xmlns:xlink="http://www.w3.org/1999/xlink">
    <!-- Generator: Sketch 41.1 (35376) - http://www.bohemiancoding.com/sketch -->
    <title>1</title>
    <desc>Created with Sketch.</desc>
    <defs></defs>
    <g id="a" stroke="none" stroke-width="1" fill="none" fill-rule="evenodd">
        <g id="resource-1-copy" transform="translate(-344.000000, -653.000000)" fill="#FFFFFF">
            <path d="M681.29128,874.467532 L681.29128,987.247499 C681.29128,989.319948 679.61608,991 677.532238,991 L565.113173,991 L565.113173,980.484444 C565.068751,979.243979 565.113173,977.991632 565.113173,976.728889 C565.113173,947.690984 541.622658,924.151111 512.64564,924.151111 C483.668622,924.151111 460.178108,947.690984 460.178108,976.728889 C460.178108,977.991632 460.222529,979.243979 460.309891,980.484444 L460.26796,991 L347.759042,991 C345.68298,991 344,989.32128 344,987.247499 L344,656.752501 C344,654.680052 345.6752,653 347.759042,653 L677.532238,653 C679.6083,653 681.29128,654.67872 681.29128,656.752501 L681.29128,769.622505 L691.760375,769.664251 C693.000841,769.576889 694.253187,769.532468 695.515931,769.532468 C724.553836,769.532468 748.093709,793.022982 748.093709,822 C748.093709,850.977018 724.553836,874.467532 695.515931,874.467532 C694.253187,874.467532 693.000841,874.423111 691.760375,874.467532 L681.29128,874.467532 Z" id="1"></path>
        </g>
    </g>
</svg>