<?xml version="1.0" encoding="UTF-8"?>
<svg width="338px" height="406px" viewBox="0 0 338 406" version="1.1" xmlns="http://www.w3.org/2000/svg" xmlns:xlink="http://www.w3.org/1999/xlink">
    <!-- Generator: Sketch 40.3 (33839) - http://www.bohemiancoding.com/sketch -->
    <title>Combined Shape</title>
    <desc>Created with Sketch.</desc>
    <defs></defs>
    <g id="a" stroke="none" stroke-width="1" fill="none" fill-rule="evenodd">
        <g id="resource-1" transform="translate(-791.000000, -652.000000)" fill="#EB8275">
            <g id="student" transform="translate(791.000000, 652.000000)">
                <path d="M82.6690765,34.3075057 L-29.6250889,34.3075057 C-31.6988705,34.3075057 -33.3775902,35.9904861 -33.3775902,38.0665477 L-33.3775902,367.839744 C-33.3775902,369.923586 -31.6975381,371.598786 -29.6250889,371.598786 L83.1346733,371.598786 L83.1766926,361.105279 C83.0891468,359.867415 83.044632,358.617694 83.044632,357.357598 C83.044632,328.38058 106.584505,304.890066 135.62241,304.890066 C164.660315,304.890066 188.200188,328.38058 188.200188,357.357598 C188.200188,358.617694 188.155673,359.867415 188.200188,361.105279 L188.200188,371.598786 L300.869909,371.598786 C302.94369,371.598786 304.62241,369.915805 304.62241,367.839744 L304.62241,255.530924 L315.162377,255.530924 C316.400242,255.486409 317.649962,255.530924 318.910058,255.530924 C347.887076,255.530924 371.37759,231.991051 371.37759,202.953146 C371.37759,173.915241 347.887076,150.375368 318.910058,150.375368 C317.649962,150.375368 316.400242,150.419883 315.162377,150.507429 L304.62241,150.465223 L304.62241,38.0665477 C304.62241,35.9827054 302.942358,34.3075057 300.869909,34.3075057 L187.73309,34.3075057 L187.692571,44.4262441 C187.780117,45.6641088 187.824632,46.9138293 187.824632,48.173925 C187.824632,77.150943 164.284759,100.641457 135.246854,100.641457 C106.208949,100.641457 82.6690765,77.150943 82.6690765,48.173925 C82.6690765,46.9138293 82.7135912,45.6641088 82.6690765,44.4262441 L82.6690765,34.3075057 Z" id="Combined-Shape" transform="translate(169.000000, 202.953146) rotate(90.000000) translate(-169.000000, -202.953146) "></path>
            </g>
        </g>
    </g>
</svg>