<?xml version="1.0" encoding="UTF-8"?>
<svg width="405px" height="405px" viewBox="0 0 405 405" version="1.1" xmlns="http://www.w3.org/2000/svg" xmlns:xlink="http://www.w3.org/1999/xlink">
    <!-- Generator: Sketch 40.3 (33839) - http://www.bohemiancoding.com/sketch -->
    <title>Combined Shape</title>
    <desc>Created with Sketch.</desc>
    <defs></defs>
    <g id="a" stroke="none" stroke-width="1" fill="none" fill-rule="evenodd">
        <g id="resource-1" transform="translate(-1171.000000, -653.000000)" fill="#FFFFFF">
            <g id="alumni" transform="translate(1373.500000, 855.500000) scale(-1, 1) translate(-1373.500000, -855.500000) translate(1171.000000, 653.000000)">
                <path d="M337.29128,221.467532 L337.29128,334.247499 C337.29128,336.319948 335.61608,338 333.532238,338 L221.113173,338 L221.113173,348.2 C221.068751,349.440466 221.113173,350.692812 221.113173,351.955556 C221.113173,380.99346 197.622658,404.533333 168.64564,404.533333 C139.668622,404.533333 116.178108,380.99346 116.178108,351.955556 C116.178108,350.692812 116.222529,349.440466 116.309891,348.2 L116.188233,338 L3.75904202,338 C1.68298044,338 0,336.32128 0,334.247499 L0,3.7525013 C0,1.68005206 1.67519969,0 3.75904202,0 L333.532238,0 C335.6083,0 337.29128,1.67871964 337.29128,3.7525013 L337.29128,116.622505 L347.760375,116.664251 C349.000841,116.576889 350.253187,116.532468 351.515931,116.532468 C380.553836,116.532468 404.093709,140.022982 404.093709,169 C404.093709,197.977018 380.553836,221.467532 351.515931,221.467532 C350.253187,221.467532 349.000841,221.423111 347.760375,221.467532 L337.29128,221.467532 Z" id="Combined-Shape"></path>
            </g>
        </g>
    </g>
</svg>