<?xml version="1.0" encoding="UTF-8"?>
<svg width="405px" height="338px" viewBox="0 0 405 338" version="1.1" xmlns="http://www.w3.org/2000/svg" xmlns:xlink="http://www.w3.org/1999/xlink">
    <!-- Generator: Sketch 40.3 (33839) - http://www.bohemiancoding.com/sketch -->
    <title>Combined Shape</title>
    <desc>Created with Sketch.</desc>
    <defs></defs>
    <g id="a" stroke="none" stroke-width="1" fill="none" fill-rule="evenodd">
        <g id="resource-1" transform="translate(-1171.000000, -1833.000000)" fill="#FFFFFF">
            <g id="Group" transform="translate(960.000000, 1969.000000) scale(-1, -1) translate(-960.000000, -1969.000000) translate(344.000000, 1766.000000)">
                <g id="faculty" transform="translate(0.000000, 1.000000)">
                    <path d="M337.29128,221.467532 L337.29128,334.247499 C337.29128,336.319948 335.61608,338 333.532238,338 L221.113173,338 L221.113173,327.484444 C221.068751,326.243979 221.113173,324.991632 221.113173,323.728889 C221.113173,294.690984 197.622658,271.151111 168.64564,271.151111 C139.668622,271.151111 116.178108,294.690984 116.178108,323.728889 C116.178108,324.991632 116.222529,326.243979 116.309891,327.484444 L116.26796,338 L3.75904202,338 C1.68298044,338 0,336.32128 0,334.247499 L0,3.7525013 C0,1.68005206 1.67519969,0 3.75904202,0 L333.532238,0 C335.6083,0 337.29128,1.67871964 337.29128,3.7525013 L337.29128,116.622505 L347.760375,116.664251 C349.000841,116.576889 350.253187,116.532468 351.515931,116.532468 C380.553836,116.532468 404.093709,140.022982 404.093709,169 C404.093709,197.977018 380.553836,221.467532 351.515931,221.467532 C350.253187,221.467532 349.000841,221.423111 347.760375,221.467532 L337.29128,221.467532 Z" id="Combined-Shape"></path>
                </g>
            </g>
        </g>
    </g>
</svg>