<?xml version="1.0" encoding="UTF-8"?>
<svg width="405px" height="338px" viewBox="0 0 405 338" version="1.1" xmlns="http://www.w3.org/2000/svg" xmlns:xlink="http://www.w3.org/1999/xlink">
    <!-- Generator: Sketch 41.1 (35376) - http://www.bohemiancoding.com/sketch -->
    <title>9</title>
    <desc>Created with Sketch.</desc>
    <defs></defs>
    <g id="a" stroke="none" stroke-width="1" fill="none" fill-rule="evenodd">
        <g id="resource-1-copy" transform="translate(-1171.000000, -1833.000000)" fill="#FFFFFF">
            <path d="M1509.19757,2054.46753 L1509.19757,2167.2475 C1509.19757,2169.31995 1507.52237,2171 1505.43853,2171 L1393.01946,2171 L1393.01946,2160.48444 C1392.97504,2159.24398 1393.01946,2157.99163 1393.01946,2156.72889 C1393.01946,2127.69098 1369.52895,2104.15111 1340.55193,2104.15111 C1311.57491,2104.15111 1288.0844,2127.69098 1288.0844,2156.72889 C1288.0844,2157.99163 1288.12882,2159.24398 1288.21618,2160.48444 L1288.17425,2171 L1175.66533,2171 C1173.58927,2171 1171.90629,2169.32128 1171.90629,2167.2475 L1171.90629,1836.7525 C1171.90629,1834.68005 1173.58149,1833 1175.66533,1833 L1505.43853,1833 C1507.51459,1833 1509.19757,1834.67872 1509.19757,1836.7525 L1509.19757,1949.62251 L1519.66667,1949.66425 C1520.90713,1949.57689 1522.15948,1949.53247 1523.42222,1949.53247 C1552.46013,1949.53247 1576,1973.02298 1576,2002 C1576,2030.97702 1552.46013,2054.46753 1523.42222,2054.46753 C1522.15948,2054.46753 1520.90713,2054.42311 1519.66667,2054.46753 L1509.19757,2054.46753 Z" id="9" transform="translate(1373.953146, 2002.000000) scale(-1, -1) translate(-1373.953146, -2002.000000) "></path>
        </g>
    </g>
</svg>