<?xml version="1.0" encoding="UTF-8"?>
<svg width="338px" height="405px" viewBox="0 0 338 405" version="1.1" xmlns="http://www.w3.org/2000/svg" xmlns:xlink="http://www.w3.org/1999/xlink">
    <!-- Generator: Sketch 41.1 (35376) - http://www.bohemiancoding.com/sketch -->
    <title>4</title>
    <desc>Created with Sketch.</desc>
    <defs></defs>
    <g id="a" stroke="none" stroke-width="1" fill="none" fill-rule="evenodd">
        <g id="resource-1-copy" transform="translate(-344.000000, -1316.000000)" fill="#FFFFFF">
            <path d="M681.29128,1499 L681.29128,1386.7525 C681.29128,1384.67872 679.6083,1383 677.532238,1383 L564.935065,1383 C564.935065,1382.84601 564.935065,1370.63193 564.935065,1369.38667 C564.935065,1340.34876 541.444551,1316.80889 512.467532,1316.80889 C483.490514,1316.80889 460,1340.34876 460,1369.38667 C460,1370.63193 460,1382.84601 460,1383.18396 L347.759042,1383 C345.6752,1383 344,1384.68005 344,1386.7525 L344,1717.2475 C344,1719.32128 345.68298,1721 347.759042,1721 L460.26796,1721 L460.309891,1710.48444 C460.222529,1709.24398 460.178108,1707.99163 460.178108,1706.72889 C460.178108,1677.69098 483.668622,1654.15111 512.64564,1654.15111 C541.622658,1654.15111 565.113173,1677.69098 565.113173,1706.72889 C565.113173,1707.99163 565.068751,1709.24398 565.113173,1710.48444 L565.113173,1721 L677.532238,1721 C679.61608,1721 681.29128,1719.31995 681.29128,1717.2475 L681.29128,1603.93506 C681.217465,1603.93506 668.832202,1603.93506 667.577778,1603.93506 C638.539873,1603.93506 615,1580.44455 615,1551.46753 C615,1522.49051 638.539873,1499 667.577778,1499 C668.832202,1499 681.217465,1499 681.380596,1499 Z" id="4"></path>
        </g>
    </g>
</svg>