<?xml version="1.0" encoding="UTF-8"?>
<svg width="471px" height="338px" viewBox="0 0 471 338" version="1.1" xmlns="http://www.w3.org/2000/svg" xmlns:xlink="http://www.w3.org/1999/xlink">
    <!-- Generator: Sketch 41.1 (35376) - http://www.bohemiancoding.com/sketch -->
    <title>5</title>
    <desc>Created with Sketch.</desc>
    <defs></defs>
    <g id="a" stroke="none" stroke-width="1" fill="none" fill-rule="evenodd">
        <g id="resource-1-copy" transform="translate(-725.000000, -1383.000000)" fill="#FFFFFF">
            <path d="M791,1499 L791,1386.75904 C791,1384.68298 792.67872,1383 794.752501,1383 L907.046667,1383 L907.046667,1393.11874 C907.091181,1394.3566 907.046667,1395.60632 907.046667,1396.86642 C907.046667,1425.84344 930.58654,1449.33395 959.624444,1449.33395 C988.662349,1449.33395 1012.20222,1425.84344 1012.20222,1396.86642 C1012.20222,1395.60632 1012.15771,1394.3566 1012.07016,1393.11874 L1012.11068,1383 L1125.2475,1383 C1127.31995,1383 1129,1384.6752 1129,1386.75904 L1129,1499.15772 L1139.53997,1499.19992 C1140.77783,1499.11238 1142.02755,1499.06786 1143.28765,1499.06786 C1172.26467,1499.06786 1195.75518,1522.60774 1195.75518,1551.64564 C1195.75518,1580.68354 1172.26467,1604.22342 1143.28765,1604.22342 C1142.02755,1604.22342 1140.77783,1604.1789 1139.53997,1604.22342 L1129,1604.22342 L1129,1716.53224 C1129,1718.6083 1127.32128,1720.29128 1125.2475,1720.29128 L1012.57778,1720.29128 L1012.57778,1709.79777 C1012.53326,1708.55991 1012.57778,1707.31019 1012.57778,1706.05009 C1012.57778,1677.07307 989.037905,1653.58256 960,1653.58256 C930.962095,1653.58256 907.422222,1677.07307 907.422222,1706.05009 C907.422222,1707.31019 907.466737,1708.55991 907.554283,1709.79777 L907.512264,1720.29128 L794.752501,1720.29128 C792.680052,1720.29128 791,1718.61608 791,1716.53224 L791,1603.93506 C790.696351,1603.93506 778.805558,1603.93506 777.577778,1603.93506 C748.539873,1603.93506 725,1580.44455 725,1551.46753 C725,1522.49051 748.539873,1499 777.577778,1499 C778.805558,1499 790.696351,1499 791.353883,1499 Z" id="5"></path>
        </g>
    </g>
</svg>