<?xml version="1.0" encoding="UTF-8"?>
<svg width="338px" height="404px" viewBox="0 0 338 404" version="1.1" xmlns="http://www.w3.org/2000/svg" xmlns:xlink="http://www.w3.org/1999/xlink">
    <!-- Generator: Sketch 41.1 (35376) - http://www.bohemiancoding.com/sketch -->
    <title>6</title>
    <desc>Created with Sketch.</desc>
    <defs></defs>
    <g id="a" stroke="none" stroke-width="1" fill="none" fill-rule="evenodd">
        <g id="resource-1-copy" transform="translate(-1238.000000, -1382.000000)" fill="#FFFFFF">
            <path d="M1270.99862,1531.62716 L1270.99862,1418.75112 C1270.99862,1416.67867 1272.67382,1414.99862 1274.75766,1414.99862 L1604.53085,1414.99862 C1606.60692,1414.99862 1608.2899,1416.67734 1608.2899,1418.75112 L1608.2899,1749.24612 C1608.2899,1751.31856 1606.6147,1752.99862 1604.53085,1752.99862 L1492.11179,1752.99862 L1492.11179,1742.48306 C1492.06737,1741.2426 1492.11179,1739.99025 1492.11179,1738.72751 C1492.11179,1709.6896 1468.62127,1686.14973 1439.64426,1686.14973 C1410.66724,1686.14973 1387.17672,1709.6896 1387.17672,1738.72751 C1387.17672,1739.99025 1387.22115,1741.2426 1387.30851,1742.48306 L1387.26658,1752.99862 L1274.75766,1752.99862 C1272.6816,1752.99862 1270.99862,1751.3199 1270.99862,1749.24612 L1270.99862,1636.46615 L1262.04344,1636.46615 C1260.80297,1636.42173 1259.55062,1636.46615 1258.28788,1636.46615 C1229.24998,1636.46615 1205.7101,1612.97563 1205.7101,1583.99862 C1205.7101,1555.0216 1229.24998,1531.53108 1258.28788,1531.53108 C1259.55062,1531.53108 1260.80297,1531.57551 1262.04344,1531.66287 L1270.99862,1531.62716 Z M1608.2899,1531.53108 L1608.2899,1636.46615 L1597.24101,1636.46615 C1596.00054,1636.42173 1594.7482,1636.46615 1593.48545,1636.46615 C1564.44755,1636.46615 1540.90767,1612.97563 1540.90767,1583.99862 C1540.90767,1555.0216 1564.44755,1531.53108 1593.48545,1531.53108 C1594.7482,1531.53108 1596.00054,1531.57551 1597.24101,1531.66287 L1608.2899,1531.53108 Z" id="6" transform="translate(1407.000000, 1583.998617) scale(-1, 1) rotate(-90.000000) translate(-1407.000000, -1583.998617) "></path>
        </g>
    </g>
</svg>