<?xml version="1.0" encoding="UTF-8"?>
<svg width="338px" height="406px" viewBox="0 0 338 406" version="1.1" xmlns="http://www.w3.org/2000/svg" xmlns:xlink="http://www.w3.org/1999/xlink">
    <!-- Generator: Sketch 41.1 (35376) - http://www.bohemiancoding.com/sketch -->
    <title>2</title>
    <desc>Created with Sketch.</desc>
    <defs></defs>
    <g id="a" stroke="none" stroke-width="1" fill="none" fill-rule="evenodd">
        <g id="resource-1-copy" transform="translate(-791.000000, -652.000000)" fill="#FFFFFF">
            <path d="M873.669076,686.307506 L761.374911,686.307506 C759.301129,686.307506 757.62241,687.990486 757.62241,690.066548 L757.62241,1019.83974 C757.62241,1021.92359 759.302462,1023.59879 761.374911,1023.59879 L874.134673,1023.59879 L874.176693,1013.10528 C874.089147,1011.86741 874.044632,1010.61769 874.044632,1009.3576 C874.044632,980.38058 897.584505,956.890066 926.62241,956.890066 C955.660315,956.890066 979.200188,980.38058 979.200188,1009.3576 C979.200188,1010.61769 979.155673,1011.86741 979.200188,1013.10528 L979.200188,1023.59879 L1091.86991,1023.59879 C1093.94369,1023.59879 1095.62241,1021.91581 1095.62241,1019.83974 L1095.62241,907.530924 L1106.16238,907.530924 C1107.40024,907.486409 1108.64996,907.530924 1109.91006,907.530924 C1138.88708,907.530924 1162.37759,883.991051 1162.37759,854.953146 C1162.37759,825.915241 1138.88708,802.375368 1109.91006,802.375368 C1108.64996,802.375368 1107.40024,802.419883 1106.16238,802.507429 L1095.62241,802.465223 L1095.62241,690.066548 C1095.62241,687.982705 1093.94236,686.307506 1091.86991,686.307506 L978.73309,686.307506 L978.692571,696.426244 C978.780117,697.664109 978.824632,698.913829 978.824632,700.173925 C978.824632,729.150943 955.284759,752.641457 926.246854,752.641457 C897.208949,752.641457 873.669076,729.150943 873.669076,700.173925 C873.669076,698.913829 873.713591,697.664109 873.669076,696.426244 L873.669076,686.307506 Z" id="2" transform="translate(960.000000, 854.953146) rotate(90.000000) translate(-960.000000, -854.953146) "></path>
        </g>
    </g>
</svg>