<?xml version="1.0" encoding="UTF-8"?>
<svg width="405px" height="405px" viewBox="0 0 405 405" version="1.1" xmlns="http://www.w3.org/2000/svg" xmlns:xlink="http://www.w3.org/1999/xlink">
    <!-- Generator: Sketch 41.1 (35376) - http://www.bohemiancoding.com/sketch -->
    <title>3</title>
    <desc>Created with Sketch.</desc>
    <defs></defs>
    <g id="a" stroke="none" stroke-width="1" fill="none" fill-rule="evenodd">
        <g id="resource-1-copy" transform="translate(-1171.000000, -653.000000)" fill="#FFFFFF">
            <path d="M1509.19757,874.467532 L1509.19757,987.247499 C1509.19757,989.319948 1507.52237,991 1505.43853,991 L1393.01946,991 L1393.01946,1001.2 C1392.97504,1002.44047 1393.01946,1003.69281 1393.01946,1004.95556 C1393.01946,1033.99346 1369.52895,1057.53333 1340.55193,1057.53333 C1311.57491,1057.53333 1288.0844,1033.99346 1288.0844,1004.95556 C1288.0844,1003.69281 1288.12882,1002.44047 1288.21618,1001.2 L1288.09452,991 L1175.66533,991 C1173.58927,991 1171.90629,989.32128 1171.90629,987.247499 L1171.90629,656.752501 C1171.90629,654.680052 1173.58149,653 1175.66533,653 L1505.43853,653 C1507.51459,653 1509.19757,654.67872 1509.19757,656.752501 L1509.19757,769.622505 L1519.66667,769.664251 C1520.90713,769.576889 1522.15948,769.532468 1523.42222,769.532468 C1552.46013,769.532468 1576,793.022982 1576,822 C1576,850.977018 1552.46013,874.467532 1523.42222,874.467532 C1522.15948,874.467532 1520.90713,874.423111 1519.66667,874.467532 L1509.19757,874.467532 Z" id="3" transform="translate(1373.953146, 855.266667) scale(-1, 1) translate(-1373.953146, -855.266667) "></path>
        </g>
    </g>
</svg>